<?xml version="1.0" standalone="no"?>
<!DOCTYPE svg PUBLIC "-//W3C//DTD SVG 20010904//EN"
 "http://www.w3.org/TR/2001/REC-SVG-20010904/DTD/svg10.dtd">
<svg version="1.0" xmlns="http://www.w3.org/2000/svg"
 width="500.000000pt" height="500.000000pt" viewBox="0 0 500.000000 500.000000"
 preserveAspectRatio="xMidYMid meet">

<g transform="translate(0.000000,500.000000) scale(0.100000,-0.100000)"
fill="#000000" stroke="none">
<path d="M883 4065 c-91 -39 -97 -188 -10 -240 28 -17 57 -21 217 -25 l184 -5
78 -200 c43 -110 87 -229 98 -265 11 -36 47 -238 80 -450 122 -794 125 -809
177 -898 59 -103 188 -194 311 -221 84 -18 1267 -15 1353 3 108 23 217 91 283
177 29 38 149 268 439 844 94 186 112 272 87 406 -36 187 -201 349 -385 379
-36 6 -473 10 -1101 10 l-1042 0 -67 183 c-84 226 -107 272 -148 297 -30 18
-51 20 -277 20 -188 -1 -253 -4 -277 -15z m2926 -790 c69 -38 101 -94 101
-177 0 -65 -1 -66 -217 -494 -119 -236 -231 -452 -249 -480 -22 -36 -45 -58
-76 -73 -44 -21 -51 -21 -664 -21 -386 0 -633 4 -655 10 -38 11 -112 81 -122
116 -14 49 -42 214 -106 624 -63 405 -75 490 -72 513 1 4 454 7 1007 7 l1006
0 47 -25z"/>
<path d="M2045 1580 c-91 -21 -164 -84 -194 -165 -26 -70 -26 -110 -1 -178 39
-103 128 -166 235 -167 80 0 118 12 171 55 153 125 120 358 -61 435 -50 22
-111 30 -150 20z"/>
<path d="M2952 1554 c-89 -44 -142 -128 -141 -224 0 -133 83 -235 208 -258
200 -36 361 148 296 339 -49 144 -223 213 -363 143z"/>
</g>
</svg>
